<svg width="900" height="900" viewBox="0 0 900 900" fill="none" xmlns="http://www.w3.org/2000/svg">
  <rect width="900" height="900" fill="white"/>
  <ellipse cx="468" cy="746" rx="346" ry="42" fill="#D9D9D9"/>
  <rect x="540" y="456" width="230" height="34" rx="8" fill="#C88755"/>
  <rect x="602" y="486" width="126" height="244" fill="#9D6239"/>
  <rect x="618" y="512" width="80" height="44" rx="4" fill="#D5965E"/>
  <rect x="618" y="578" width="80" height="44" rx="4" fill="#D5965E"/>
  <rect x="618" y="644" width="80" height="44" rx="4" fill="#D5965E"/>
  <path d="M644 536H670M644 602H670M644 668H670" stroke="#5D3A28" stroke-width="8" stroke-linecap="round"/>
  <path d="M628 456V700M730 456V700" stroke="#8A5635" stroke-width="16" stroke-linecap="round"/>
  <rect x="600" y="296" width="174" height="112" rx="8" fill="#252525"/>
  <rect x="664" y="408" width="44" height="58" fill="#252525"/>
  <rect x="636" y="460" width="98" height="18" rx="9" fill="#252525"/>
  <rect x="476" y="486" width="62" height="250" fill="#A66B41"/>
  <path d="M280 678C243 646 237 584 260 526C287 459 349 426 424 438C514 452 564 537 548 626L280 678Z" fill="#1F2335"/>
  <path d="M255 734C252 662 247 595 237 544C226 486 258 430 312 407L363 462C330 497 321 552 337 607C349 649 351 696 346 734H255Z" fill="#6367C9"/>
  <path d="M373 444C438 444 491 497 491 562C491 628 438 681 373 681C307 681 254 628 254 562C254 497 307 444 373 444Z" fill="#1F2335"/>
  <path d="M444 476C472 489 500 498 528 499L526 538C486 539 453 526 423 506L444 476Z" fill="#F2B48E"/>
  <path d="M337 305C330 247 366 190 426 178C495 164 554 215 553 284C552 342 505 390 446 391C390 392 344 360 337 305Z" fill="#F2B48E"/>
  <path d="M342 278C372 226 426 204 488 216C519 222 540 238 554 258C553 195 498 151 429 161C365 171 326 221 342 278Z" fill="#0C7280"/>
  <path d="M338 286C374 254 424 245 479 257C507 263 532 273 554 286C552 347 505 390 446 391C388 392 342 356 338 286Z" fill="#F7F3EF"/>
  <path d="M395 306C395 320 404 331 415 331C426 331 435 320 435 306C435 292 426 281 415 281C404 281 395 292 395 306Z" fill="#263238"/>
  <path d="M492 306C492 320 501 331 512 331C523 331 532 320 532 306C532 292 523 281 512 281C501 281 492 292 492 306Z" fill="#263238"/>
  <path d="M431 358C456 377 489 377 515 358" stroke="#BE6A5C" stroke-width="8" stroke-linecap="round"/>
  <path d="M365 392C404 432 493 432 532 392L565 454L327 452L365 392Z" fill="#0C7280"/>
  <path d="M537 505C553 501 567 512 567 528C567 541 558 553 545 557L514 566L503 518L537 505Z" fill="#F2B48E"/>
</svg>
